<svg width="28" height="18" viewBox="0 0 28 18" fill="none" xmlns="http://www.w3.org/2000/svg">
<path d="M20.0996 0C23.2488 0 25.7998 2.69824 25.7998 5.9668L25.79 6.31738C25.7432 7.13352 25.536 7.93244 25.1807 8.66406C24.841 9.36347 24.3713 9.98321 23.8027 10.4922C26.0646 11.8463 27.5996 14.3878 27.5996 17.2998V17.5996H25.2002V17.2998C25.2002 14.3124 22.9121 11.9336 20.0996 11.9336C17.2872 11.9337 15 14.3124 15 17.2998V17.5996H12.5996V17.2998C12.5996 14.3124 10.3124 11.9337 7.5 11.9336C4.68755 11.9336 2.39941 14.3124 2.39941 17.2998V17.5996H0V17.2998C0 14.3885 1.53471 11.8454 3.79688 10.4912C2.57759 9.39412 1.7999 7.77097 1.7998 5.9668C1.7998 2.69824 4.35085 0 7.5 0C10.5508 0.000108186 13.0399 2.53216 13.1924 5.66211L13.2002 5.9668C13.1992 6.90383 12.9871 7.828 12.5811 8.66406C12.2415 9.36318 11.7713 9.98235 11.2031 10.4912C12.2516 11.1139 13.1417 11.9888 13.7998 13.043C14.4579 11.9888 15.348 11.1139 16.3965 10.4912C15.1773 9.39412 14.3995 7.77087 14.3994 5.9668C14.3994 2.6983 16.9506 0.000111261 20.0996 0ZM15.5459 11.4658C15.4754 11.526 15.4061 11.5875 15.3379 11.6504L15.5459 11.4668C15.6162 11.4067 15.6873 11.3474 15.7598 11.29C15.6874 11.3472 15.6161 11.4059 15.5459 11.4658ZM16.1504 11.0039C16.1139 11.029 16.077 11.0534 16.041 11.0791C16.077 11.0534 16.1139 11.029 16.1504 11.0039ZM11.542 11.0684C11.5161 11.0499 11.49 11.0317 11.4639 11.0137C11.49 11.0317 11.5161 11.0499 11.542 11.0684ZM7.5 2.48828C5.67845 2.48828 4.2002 4.01919 4.2002 5.9668C4.20036 7.91425 5.67855 9.44434 7.5 9.44434C9.32136 9.44423 10.7996 7.91418 10.7998 5.9668C10.7998 4.01926 9.32146 2.48839 7.5 2.48828ZM20.0996 2.48828C18.2781 2.48839 16.7998 4.01926 16.7998 5.9668C16.8 7.91418 18.2782 9.44423 20.0996 9.44434C21.9211 9.44434 23.3993 7.91425 23.3994 5.9668C23.3994 4.01919 21.9212 2.48828 20.0996 2.48828ZM16.5811 6.77246C16.6114 6.92151 16.6498 7.06722 16.6963 7.20898C16.6499 7.06723 16.6113 6.92154 16.5811 6.77246ZM11.0137 6.79102C10.9862 6.92097 10.9525 7.04835 10.9131 7.17285C10.9526 7.04835 10.9861 6.92094 11.0137 6.79102ZM16.5186 6.35449C16.5286 6.45983 16.5445 6.56352 16.5625 6.66602C16.5443 6.56163 16.5286 6.45594 16.5186 6.34863V6.35449ZM23.6689 6.45605C23.673 6.42228 23.6784 6.38855 23.6816 6.35449V6.34863C23.6783 6.38465 23.6733 6.42036 23.6689 6.45605ZM11.0684 6.45605C11.0725 6.42229 11.0778 6.38856 11.0811 6.35449V6.34863C11.0777 6.38465 11.0727 6.42037 11.0684 6.45605Z" fill="#C084FC"/>
</svg>
